<?xml version="1.0" encoding="utf-8"?>
<!DOCTYPE svg PUBLIC "-//W3C//DTD SVG 1.0//EN" "http://www.w3.org/TR/2001/REC-SVG-20010904/DTD/svg10.dtd">
<svg version="1.0" xmlns="http://www.w3.org/2000/svg" width="412px" height="412px" viewBox="0 0 412 412" preserveAspectRatio="xMidYMid meet">
   <defs>
      <linearGradient id="lg0" gradientUnits="userSpaceOnUse" x1="24.707031%" y1="47.94922%" x2="70.11719%" y2="47.94922%">
         <stop offset="0%" style="stop-color:rgb(62,129,229);"></stop>
         <stop offset="100%" style="stop-color:rgb(33,213,196);"></stop>
      </linearGradient>
   </defs>
 <g fill="#1b224e">
  <path d="M0 206 c0 -206 0 -206 206 -206 206 0 206 0 206 206 0 206 0 206 -206 206 -206 0 -206 0 -206 -206z m209.22 137.28 c14.65 -4.43 35.37 -21.49 46.51 -38.30 6.84 -10.26 11.51 -20.84 14.40 -32.59 2.53 -10.34 2.74 -12.51 2.94 -31.18 0.20 -21.40 0.72 -20.04 -8.37 -22.49 -12.71 -3.50 -24.42 -8.97 -37.30 -17.46 -5.11 -3.34 -5.87 -3.74 -6.72 -3.38 -0.48 0.24 -3.14 1.89 -5.83 3.66 -11.99 7.97 -23.38 13.20 -36.81 16.94 -4.91 1.41 -5.79 1.77 -6.92 2.98 -1.05 1.13 -1.29 1.81 -1.57 4.10 -0.48 4.51 0.12 30.70 0.84 36.17 2.13 16.66 9.17 33.60 19.88 47.88 4.18 5.55 12.83 14.28 19.03 19.23 5.19 4.10 5.19 4.10 5.07 5.71 -0.12 1.57 -0.16 1.61 -2.74 2.62 -2.62 1.01 -2.62 1.01 -51.70 1.21 -27 0.12 -49.33 0.12 -49.57 0.04 -0.89 -0.24 -0.60 -3.18 0.48 -5.07 3.06 -5.15 13 -12.59 21.36 -15.89 1.73 -0.72 5.99 -2.29 9.41 -3.50 9.78 -3.46 17.62 -7.89 20.28 -11.51 0.76 -1.05 0.76 -1.21 0.24 -2.17 -0.32 -0.60 -0.80 -1.13 -1.09 -1.21 -0.24 -0.08 -1.41 0.68 -2.58 1.73 -2.74 2.41 -8.09 5.03 -14.65 7.08 -2.86 0.89 -7 2.33 -9.17 3.18 -5.87 2.33 -5.83 2.33 -8.53 -2.41 -4.63 -8.21 -7.72 -17.46 -9.29 -28 -1.09 -7.32 -1.01 -21.61 0.16 -28.37 2.05 -11.59 4.59 -19.35 9.62 -29.41 8.25 -16.50 20.60 -29.93 39.47 -42.81 4.67 -3.22 6.16 -4.43 7.08 -5.95 1.61 -2.62 1.49 -3.94 -0.93 -10.46 -3.66 -9.94 -4.99 -15.97 -5.67 -25.55 -1.77 -24.42 8.45 -49.65 27.92 -69.12 7.97 -7.97 14.28 -12.23 18.11 -12.23 1.61 0 1.89 0.16 2.37 1.09 0.84 1.65 2.09 7.36 3.50 15.81 0.64 4.10 1.41 7.97 1.65 8.57 0.76 1.85 2.41 2.41 8.41 2.74 10.86 0.60 19.88 3.86 27.36 9.94 6.52 5.23 10.82 11.75 14.08 21.20 1.93 5.63 2.17 5.95 8.93 11.10 5.39 4.10 5.59 4.47 4.79 9.25 -1.09 6.52 -4.51 13.24 -8.97 17.50 -4.87 4.67 -10.50 7.20 -18.63 8.41 -4.47 0.64 -5.87 1.21 -6.60 2.58 -0.48 0.89 0.64 2.29 2.21 2.70 3.06 0.76 11.31 -1.13 16.74 -3.86 8.89 -4.43 14.81 -11.31 18.71 -21.69 1.45 -3.90 2.62 -9.17 2.33 -10.58 -0.40 -1.81 -2.25 -3.62 -7.93 -7.85 -2.86 -2.09 -5.31 -4.10 -5.51 -4.47 -0.20 -0.40 -0.93 -2.37 -1.61 -4.43 -3.74 -11.23 -10.66 -20.48 -19.63 -26.31 -2.41 -1.57 -2.53 -1.69 -2.53 -3.30 0 -0.93 0.28 -3.26 0.60 -5.27 1.17 -7.40 2.21 -16.70 1.97 -17.70 -0.28 -1.09 -2.29 -3.02 -3.18 -3.02 -0.32 0 -2.86 1.17 -5.71 2.58 -5.51 2.78 -11.10 6.40 -16.05 10.30 -2.33 1.89 -3.34 2.41 -4.39 2.41 -0.76 0 -1.45 -0.16 -1.61 -0.36 -0.12 -0.20 -0.72 -2.98 -1.37 -6.16 -2.62 -12.79 -3.42 -14.85 -6.68 -16.42 -1.81 -0.89 -1.89 -0.89 -3.90 -0.20 -10.94 3.58 -25.79 17.38 -35.93 33.39 -3.22 5.15 -8.25 15.37 -10.14 20.76 -3.14 8.81 -4.95 18.91 -4.95 27.32 0 10.26 2.74 22.89 7.20 33.11 0.48 1.09 0.84 2.82 0.84 3.86 0 2.29 -0.16 2.45 -7.44 7.68 -14.61 10.50 -25.95 21.85 -34.04 34.08 -4.83 7.36 -9.90 18.19 -12.59 26.88 -4.51 14.61 -5.55 29.37 -3.10 43.73 1.65 9.50 3.94 16.50 8.37 25.23 4.06 8.09 4.18 9.05 1.65 10.50 -5.15 2.86 -12.15 9.17 -15.25 13.76 -2.01 2.94 -4.79 8.29 -4.79 9.21 0 1.33 1.77 2.90 3.66 3.18 0.97 0.16 24.06 0.28 51.26 0.24 49.49 -0.04 49.49 -0.04 52.51 -0.97z m37.94 -217.31 c1.57 -0.60 3.46 -2.78 3.90 -4.55 0.40 -1.45 0.32 -1.85 -0.56 -3.74 -0.80 -1.61 -1.45 -2.33 -2.82 -3.02 -1.53 -0.84 -1.89 -0.89 -2.94 -0.44 -2.78 1.13 -4.79 4.63 -4.10 7.04 0.48 1.65 1.53 3.06 3.18 4.18 1.49 0.97 1.93 1.05 3.34 0.52z"/>
  <path d="M216.66 328.63 c-4.02 -2.70 -10.86 -8.61 -14.69 -12.63 -11.99 -12.67 -20.16 -27.40 -24.18 -43.82 -2.21 -9.01 -2.53 -12.83 -2.53 -30.94 -0.04 -16.50 -0.04 -16.50 5.59 -18.15 3.10 -0.93 6.16 -1.89 6.76 -2.13 0.64 -0.28 1.25 -0.48 1.37 -0.48 0.28 0 10.58 -4.39 11.39 -4.83 0.32 -0.20 2.70 -1.53 5.27 -2.98 2.58 -1.41 6.68 -3.86 9.09 -5.43 4.02 -2.62 4.59 -2.86 6.52 -2.86 1.97 0 2.53 0.24 7.89 3.62 10.90 6.84 23.17 12.35 34.72 15.69 2.45 0.72 3.02 1.05 3.38 1.93 0.64 1.65 0.12 31.70 -0.64 37.10 -2.37 16.94 -8.81 32.03 -19.47 45.87 -5.11 6.60 -14.69 15.61 -21.53 20.28 -3.78 2.53 -4.87 2.49 -8.93 -0.24z"/>
  <path d="M240.40 82.04 c-2.21 -0.64 -5.11 -1.33 -6.44 -1.49 -2.41 -0.28 -2.41 -0.28 -2.53 -1.77 -0.08 -0.84 0 -1.77 0.20 -2.09 0.52 -0.97 5.27 -4.63 9.74 -7.56 3.74 -2.41 4.47 -2.74 6.16 -2.74 1.93 0 1.93 0 1.93 1.89 0 1.81 -1.89 14.08 -2.25 14.69 -0.36 0.56 -2.74 0.24 -6.80 -0.93z"/>
 </g>
 <g fill="#2cb1d4">
  <path fill="url(#lg0)" d="M104.33 345.25 c-0.93 -0.16 -1.97 -0.52 -2.33 -0.84 -1.17 -0.97 -1.89 -2.82 -1.65 -4.22 0.32 -1.61 2.94 -6.68 5.03 -9.78 3.10 -4.59 10.10 -10.90 15.25 -13.76 0.93 -0.52 1.69 -1.05 1.69 -1.17 0 -0.16 -1.49 -3.26 -3.34 -6.92 -4.02 -7.97 -7.12 -16.98 -8.17 -23.90 -0.16 -1.09 -0.36 -2.29 -0.40 -2.62 -1.17 -5.55 -1.49 -19.88 -0.60 -26.55 1.77 -13.24 5.03 -23.82 10.90 -35.41 8.41 -16.54 21.04 -30.54 39.63 -43.86 8.17 -5.87 8.09 -5.71 6.60 -9.13 -8.73 -20.04 -9.54 -42.29 -2.25 -62.85 1.89 -5.39 6.92 -15.61 10.14 -20.76 9.25 -14.61 21.57 -26.64 32.87 -32.15 4.10 -1.97 6.80 -2.29 9.37 -1.05 3.26 1.57 4.06 3.58 6.68 16.46 0.64 3.22 1.33 5.99 1.53 6.20 0.16 0.16 1.73 -0.76 3.38 -2.09 8.05 -6.40 19.67 -12.92 23.01 -12.92 2.25 0 4.06 1.45 4.47 3.54 0.32 1.61 -0.24 6.92 -1.69 16.94 -0.52 3.66 -0.97 6.76 -0.97 6.88 0 0.16 1.13 1.01 2.53 1.93 8.97 5.83 15.89 15.09 19.63 26.31 0.68 2.05 1.41 4.02 1.61 4.43 0.20 0.36 2.66 2.37 5.51 4.47 7.68 5.67 8.53 6.96 7.97 11.71 -0.60 5.11 -3.98 14 -7.12 18.63 -4.87 7.20 -11.83 12.19 -20.68 14.81 -3.70 1.13 -10.34 1.77 -12.43 1.25 -2.33 -0.56 -3.42 -3.42 -2.01 -5.39 0.93 -1.33 1.69 -1.61 6.44 -2.29 2.41 -0.36 5.75 -1.13 7.40 -1.65 8.41 -2.82 15.17 -9.29 18.35 -17.66 1.29 -3.50 2.21 -7.72 1.89 -8.97 -0.12 -0.56 -2.01 -2.29 -4.91 -4.51 -6.72 -5.11 -6.96 -5.43 -8.89 -11.06 -3.26 -9.46 -7.56 -15.97 -14.08 -21.20 -7.48 -6.08 -16.50 -9.33 -27.36 -9.94 -5.99 -0.32 -7.64 -0.89 -8.41 -2.74 -0.24 -0.60 -1.01 -4.47 -1.65 -8.57 -2.01 -12.27 -3.30 -16.90 -4.67 -16.90 -0.93 0 -4.91 2.17 -8.21 4.47 -4.06 2.86 -13.68 12.51 -17.34 17.46 -14.08 18.99 -20.60 38.58 -19.23 57.62 0.64 9.01 2.09 15.33 5.67 24.95 1.69 4.51 2.09 6.04 2.09 8.21 0.04 4.22 -1.05 5.67 -8.29 10.62 -18.87 12.88 -31.22 26.31 -39.47 42.81 -5.67 11.39 -8.89 22.05 -10.22 34.20 -0.56 4.75 -0.28 16.05 0.44 21.16 1.53 10.42 4.63 19.76 9.29 28 2.25 3.94 2.25 3.94 4.35 3.10 1.17 -0.48 5.47 -2.01 9.62 -3.38 8.61 -2.90 13.12 -5.03 15.97 -7.56 1.09 -0.97 2.33 -1.89 2.78 -2.01 2.09 -0.68 4.43 1.89 3.90 4.26 -0.89 3.86 -9.01 9.01 -21.16 13.32 -3.42 1.25 -7.64 2.78 -9.37 3.50 -6.12 2.41 -13.60 7.32 -17.90 11.71 -2.53 2.62 -4.87 6.12 -4.39 6.60 0.12 0.12 21.49 0.24 47.48 0.20 40.23 0 47.64 -0.12 49.57 -0.60 2.82 -0.72 5.07 -1.65 5.07 -2.09 0 -0.20 -2.33 -2.17 -5.15 -4.43 -6.20 -4.95 -14.85 -13.68 -19.03 -19.23 -8.53 -11.39 -14.52 -23.90 -17.82 -37.22 -2.25 -9.09 -2.66 -13.56 -2.94 -30.98 -0.28 -18.55 -0.16 -20.48 1.61 -22.37 1.13 -1.21 2.01 -1.57 6.92 -2.98 11.95 -3.30 24.46 -8.81 33.39 -14.69 1.13 -0.72 3.70 -2.41 5.79 -3.78 5.31 -3.46 5.43 -3.46 12.67 1.29 12.79 8.45 24.54 13.96 37.22 17.42 5.55 1.49 6.72 2.13 7.81 4.22 0.68 1.29 0.72 2.62 0.56 19.47 -0.20 20 -0.36 21.89 -2.94 32.39 -4.67 18.91 -13.60 34.44 -28.12 48.88 -10.98 10.90 -23.13 19.07 -32.79 22.01 -3.02 0.93 -3.02 0.93 -53.71 0.97 -27.88 0.04 -51.46 -0.04 -52.39 -0.20z m120.06 -17.58 c6.84 -4.67 16.42 -13.68 21.53 -20.28 10.86 -14.08 17.42 -29.77 19.67 -47.07 0.56 -4.39 0.89 -32.47 0.36 -33.68 -0.28 -0.64 -1.13 -1.09 -3.30 -1.73 -11.55 -3.34 -23.82 -8.85 -34.72 -15.69 -3.18 -1.97 -6.20 -3.62 -6.68 -3.62 -0.48 0 -2.90 1.29 -5.31 2.86 -2.41 1.57 -6.52 4.02 -9.09 5.43 -2.58 1.45 -4.95 2.78 -5.27 2.98 -0.80 0.44 -11.10 4.83 -11.39 4.83 -0.12 0 -0.72 0.20 -1.37 0.48 -0.60 0.24 -3.66 1.21 -6.76 2.13 -5.63 1.65 -5.63 1.65 -5.59 16.94 0 11.91 0.16 16.29 0.68 20.08 2.78 20 11.71 38.38 26.03 53.47 5.07 5.39 16.62 14.73 18.11 14.73 0.20 0 1.57 -0.84 3.10 -1.85z m22.81 -252.47 c1.25 -7.48 1.25 -7.60 0.32 -7.60 -1.45 0 -13.76 8.65 -14.69 10.30 -0.52 0.93 -0.04 1.25 2.41 1.49 1.29 0.16 4.14 0.76 6.36 1.41 2.21 0.64 4.14 1.05 4.31 0.93 0.12 -0.12 0.72 -3.06 1.29 -6.52z"/>
  <path d="M242.61 126.66 c-6.04 -4.10 -3.74 -14 3.26 -14 4.02 0 7.12 3.86 6.68 8.25 -0.40 4.06 -2.58 6.28 -6.32 6.56 -1.81 0.12 -2.45 0 -3.62 -0.80z"/>
 </g>
</svg>